<svg id="Layer_1" data-name="Layer 1" xmlns="http://www.w3.org/2000/svg" viewBox="0 0 100 100"><defs><style>.cls-1{fill:none;stroke:#343434;stroke-linecap:round;stroke-linejoin:round;stroke-width:2px;}</style></defs><title>settings</title><path class="cls-1" d="M84.72,42.16h-3.4a32.11,32.11,0,0,0-4.08-9.6l2.31-2.31a3.8,3.8,0,0,0,0-5.35l-5.34-5.34a3.78,3.78,0,0,0-5.35,0L66.4,22a32.16,32.16,0,0,0-8.84-3.6V15a3.79,3.79,0,0,0-3.78-3.78H46.22A3.79,3.79,0,0,0,42.44,15v3.33a31.94,31.94,0,0,0-9.19,3.73l-2.44-2.44a3.8,3.8,0,0,0-5.35,0L20.12,25a3.78,3.78,0,0,0,0,5.34l2.33,2.33a32,32,0,0,0-4,9.49H15a3.79,3.79,0,0,0-3.78,3.78V53.5A3.79,3.79,0,0,0,15,57.28h3.32a32.11,32.11,0,0,0,4.29,10.11l-2.26,2.26a3.78,3.78,0,0,0,0,5.34l5.35,5.35a3.78,3.78,0,0,0,5.34,0l2.49-2.49a32.22,32.22,0,0,0,8.89,3.54v3.33a3.79,3.79,0,0,0,3.78,3.78h7.56a3.79,3.79,0,0,0,3.78-3.78V81.33a32.19,32.19,0,0,0,9.75-4.17l2.25,2.25a3.8,3.8,0,0,0,5.35,0l5.35-5.34a3.8,3.8,0,0,0,0-5.35l-2.46-2.46a32.28,32.28,0,0,0,3.59-9h3.32A3.79,3.79,0,0,0,88.5,53.5V45.94A3.79,3.79,0,0,0,84.72,42.16ZM50,72.52A22.52,22.52,0,1,1,72.52,50,22.52,22.52,0,0,1,50,72.52Z"/></svg>