<svg id="Layer_1" data-name="Layer 1" xmlns="http://www.w3.org/2000/svg" viewBox="0 0 100 100"><defs><style>.cls-1{fill:none;stroke:#343434;stroke-linecap:round;stroke-linejoin:round;stroke-width:2px;}</style></defs><title>wallet</title><polyline class="cls-1" points="76.29 28.69 76.29 21.54 65.79 21.54"/><path class="cls-1" d="M37.86,21.54H19a3.51,3.51,0,0,0-3.47,3.53v.11a3.27,3.27,0,0,0,.06.63"/><path class="cls-1" d="M84.81,64.06V86.17H19a3.51,3.51,0,0,1-3.48-3.53l.06-56.83"/><polyline class="cls-1" points="76.29 28.69 84.81 28.69 84.81 52.72"/><line class="cls-1" x1="76.29" y1="28.69" x2="72.94" y2="28.69"/><path class="cls-1" d="M30.71,28.69H19a3.51,3.51,0,0,1-3.41-2.88"/><polyline class="cls-1" points="84.81 52.72 65.16 52.72 65.16 64.06 84.81 64.06"/><line class="cls-1" x1="84.81" y1="64.06" x2="84.81" y2="52.72"/><line class="cls-1" x1="37.86" y1="21.54" x2="30.71" y2="28.69"/><polyline class="cls-1" points="37.86 21.54 48.74 10.67 53.2 15.13"/><line class="cls-1" x1="30.71" y1="28.69" x2="39.65" y2="28.69"/><line class="cls-1" x1="72.94" y1="28.69" x2="65.79" y2="21.54"/><polyline class="cls-1" points="53.2 15.13 56.3 12.04 65.79 21.54"/><line class="cls-1" x1="39.65" y1="28.69" x2="53.2" y2="15.14"/><line class="cls-1" x1="72.94" y1="28.69" x2="66.76" y2="28.69"/><line class="cls-1" x1="39.65" y1="28.69" x2="66.76" y2="28.69"/></svg>